<?xml version="1.0" encoding="UTF-8"?>
<svg width="178px" height="33px" viewBox="0 0 178 33" version="1.1" xmlns="http://www.w3.org/2000/svg" xmlns:xlink="http://www.w3.org/1999/xlink">
    <!-- Generator: Sketch 53 (72520) - https://sketchapp.com -->
    <title>中国移动logo</title>
    <desc>Created with Sketch.</desc>
    <g id="Page-1" stroke="none" stroke-width="1" fill="none" fill-rule="evenodd">
        <g id="中国移动logo" fill-rule="nonzero">
            <path d="M142.736,3.84 L142.736,16.976 L141.264,16.976 L141.264,15.808 L137.792,15.808 L137.792,17.168 L136.336,17.168 L136.336,3.84 L142.736,3.84 Z M137.792,14.368 L141.264,14.368 L141.264,5.264 L137.792,5.264 L137.792,14.368 Z M129.088,7.152 L131.76,7.152 L131.76,5.232 C131.119997,5.32800048 130.378671,5.41333296 129.536,5.488 L129.056,4.128 C131.477345,3.93599904 133.466659,3.5466696 135.024,2.96 L135.744,4.224 C134.837329,4.5440016 134.000004,4.78933248 133.232,4.96 L133.232,7.152 L135.84,7.152 L135.84,8.576 L133.232,8.576 L133.232,9.216 C134.128004,9.99467056 135.039995,10.8746618 135.968,11.856 L135.072,13.168 C134.378663,12.175995 133.765336,11.3493366 133.232,10.688 L133.232,17.488 L131.76,17.488 L131.76,11.008 C131.130664,12.3306733 130.309338,13.562661 129.296,14.704 L128.64,13.04 C130.03734,11.7706603 131.07733,10.3093416 131.76,8.656 L131.76,8.576 L129.088,8.576 L129.088,7.152 Z M145.712,3.728 L158.32,3.728 L158.32,5.2 L155.76,5.2 L155.76,9.04 L159.136,9.04 L159.136,10.512 L155.76,10.512 L155.76,17.44 L154.24,17.44 L154.24,10.512 L149.952,10.512 C149.791999,12.1333414 149.477336,13.4666614 149.008,14.512 C148.399997,15.8560067 147.38134,16.890663 145.952,17.616 L145.136,16.336 C146.416006,15.5786629 147.290664,14.6240058 147.76,13.472 C148.058668,12.6613293 148.271999,11.6746725 148.4,10.512 L144.88,10.512 L144.88,9.04 L148.512,9.04 L148.528,8.848 L148.528,5.2 L145.712,5.2 L145.712,3.728 Z M150.064,5.2 L150.064,8.864 L150.048,9.04 L154.24,9.04 L154.24,5.2 L150.064,5.2 Z M162.184,5.168 L165.128,5.168 C164.818665,4.41066288 164.482668,3.72800304 164.12,3.12 L165.672,2.864 C166.045335,3.63200384 166.370665,4.39999616 166.648,5.168 L168.952,5.168 L168.952,6.624 L165.192,6.624 L165.192,8.224 L165.176,8.656 L168.232,8.656 C168.232,12.581353 168.162667,15.0453283 168.024,16.048 C167.863999,16.9760046 167.170673,17.44 165.944,17.44 C165.794666,17.44 165.416003,17.4133336 164.808,17.36 L164.472,16.048 C164.984003,16.1013336 165.399998,16.128 165.72,16.128 C166.242669,16.128 166.552,15.8720026 166.648,15.36 C166.722667,14.8906643 166.776,13.1253486 166.808,10.064 L165.112,10.064 C164.887999,13.4026834 164.205339,15.9253248 163.064,17.632 L161.88,16.592 C163.106673,14.7786576 163.736,11.8506869 163.768,7.808 L163.768,6.624 L162.184,6.624 L162.184,5.168 Z M171.368,6.608 C171.261333,6.91733488 171.122668,7.2853312 170.952,7.712 C171.389336,9.312008 171.970663,10.7359938 172.696,11.984 C173.432004,10.4479923 173.848,8.65601024 173.944,6.608 L171.368,6.608 Z M171.88,13.344 C171.175996,12.1279939 170.589336,10.7893406 170.12,9.328 C169.874665,9.72266864 169.661334,10.0373322 169.48,10.272 L168.536,9.12 C169.602672,7.54132544 170.327998,5.41334672 170.712,2.736 L172.216,2.992 C172.087999,3.76000384 171.944001,4.47999664 171.784,5.152 L176.392,5.152 L176.392,6.608 L175.384,6.608 C175.266666,9.24267984 174.669339,11.4986573 173.592,13.376 C174.541338,14.6453397 175.645327,15.642663 176.904,16.368 L176.04,17.648 C174.781327,16.922663 173.682671,15.9200064 172.744,14.64 C171.815995,15.8240059 170.658674,16.8266626 169.272,17.648 L168.44,16.32 C169.86934,15.5519962 171.015996,14.5600061 171.88,13.344 Z" id="合并形状" fill="#8EC01F"></path>
            <g id="分组">
                <path d="M53.075451,4.81003922 L47.2677647,4.81003922 L47.2677647,2 L45.7342745,2 L45.7342745,4.81003922 L40,4.81003922 L40,12.7385098 L45.7342745,12.7385098 L45.7342745,17.0534902 L47.2596078,17.0534902 L47.2596078,12.7385098 L53.075451,12.7385098 L53.075451,4.81003922 Z M41.5049412,11.3355294 L41.5049412,6.20894118 L45.7342745,6.20894118 L45.7342745,11.3396078 L41.5049412,11.3355294 Z M51.5868235,11.3355294 L47.2677647,11.3355294 L47.2677647,6.20894118 L51.5745882,6.20894118 L51.5868235,11.3355294 Z" id="形状" fill="#0081CC"></path>
                <path d="M56.5719216,2.90384314 L56.5719216,16.9907451 L69.8431373,16.9907451 L69.8431373,2.90384314 L56.5719216,2.90384314 Z M68.3789804,15.657098 L57.9912157,15.657098 L57.9912157,4.28235294 L68.3789804,4.28235294 L68.3789804,15.657098 Z" id="形状" fill="#0081CC"></path>
                <polygon id="路径" fill="#0081CC" points="63.8600784 13.1080784 63.8600784 10.0207059 67.0616471 10.0207059 67.0616471 8.69521569 63.8600784 8.69521569 63.8600784 6.76203922 67.334902 6.76203922 67.334902 5.44062745 58.9700392 5.44062745 58.9700392 6.76203922 62.457098 6.76203922 62.457098 8.69521569 59.2392157 8.69521569 59.2392157 10.0207059 62.457098 10.0207059 62.457098 13.1080784 58.7375686 13.1080784 58.7375686 14.4335686 67.5632941 14.4335686 67.5632941 13.1080784"></polygon>
                <path d="M65.8544314,12.953098 L67.004549,12.0436078 C66.4050196,11.3380392 65.2956863,10.1022745 65.2956863,10.1022745 L64.2271373,10.9179608 C64.8122064,11.5611199 65.355737,12.2408737 65.8544314,12.953098 L65.8544314,12.953098 Z" id="路径" fill="#0081CC"></path>
                <path d="M77.9469804,12.2597647 L78.9176471,11.1178039 L76.4705882,9.02556863 L76.4705882,8.30776471 L78.5342745,8.30776471 L78.5342745,6.98227451 L76.4705882,6.98227451 L76.4705882,4.85333333 C77.4249412,4.61678431 78.5832157,4.39247059 78.5832157,4.39247059 L78.2895686,2.98133333 C77.0374902,3.38917647 72.8856471,3.82556863 72.8856471,3.82556863 L73.0895686,5.22039216 L75.0186667,4.91043137 L75.0186667,6.98227451 L72.6858039,6.98227451 L72.6858039,8.30776471 L74.8677647,8.30776471 C74.3044273,10.0624383 73.4794472,11.7220232 72.4207059,13.2304314 L73.4892549,14.3887059 C74.0545761,13.4685706 74.5639435,12.5152092 75.0145882,11.5338039 L75.0145882,17.4393725 L76.4665098,17.4393725 L76.4665098,10.8323137 L77.9469804,12.2597647 Z" id="路径" fill="#0081CC"></path>
                <path d="M83.6975686,10.0003137 C83.8226444,9.77258975 83.9356375,9.53843526 84.0360784,9.29882353 L82.6575686,9.0745098 C82.8655686,8.96031373 83.0654118,8.84203922 83.2611765,8.71560784 C86.0181961,6.90070588 86.9317647,4.87372549 86.9317647,4.87372549 L86.9317647,3.67058824 L82.1763137,3.67058824 C82.3641514,3.3735947 82.5343793,3.06582269 82.6861176,2.74886275 L81.3076078,2.21458824 C80.513854,3.81515105 79.3776616,5.22146761 77.9796078,6.33380392 L79.1745882,7.25145098 C79.9148639,6.5466319 80.6057513,5.79169768 81.2423529,4.992 L85.2922353,4.992 C84.7091015,5.86887337 83.9594392,6.62269275 83.0858039,7.21066667 L81.2872157,5.70980392 L80.345098,6.69270588 L81.8459608,7.96109804 C80.7114582,8.58084349 79.5119085,9.07324701 78.2691765,9.42933333 L79.1949804,10.6039216 C80.2642873,10.2128236 81.3125038,9.76631053 82.3353725,9.26619608 C81.8330841,10.1065605 81.2075602,10.8668126 80.4796863,11.5215686 C79.7146152,12.2178699 78.8650855,12.815281 77.9510588,13.2997647 L79.0359216,14.3846275 C80.4606737,13.601016 81.7329799,12.5676989 82.7921569,11.3339608 L85.8305882,11.3339608 C85.5145431,12.6827313 84.6556677,13.84118 83.4569412,14.5355294 L81.8255686,12.9367843 L80.7937255,13.7810196 C80.7937255,13.7810196 81.7195294,14.6538039 82.2048627,15.184 C80.7521881,15.7601196 79.2142949,16.0922273 77.6533333,16.166902 L78.2732549,17.3904314 C81.2382745,17.1579608 83.2407843,16.3422745 84.6356078,15.2818824 C85.9841164,14.2832049 86.9831691,12.8845312 87.4905098,11.2850196 L87.4905098,10.0003137 L83.6975686,10.0003137 Z" id="路径" fill="#0081CC"></path>
                <rect id="矩形" fill="#0081CC" x="90.0762353" y="3.79294118" width="6.28486275" height="1.40705882"></rect>
                <path d="M95.1457255,15.1880784 L96.5854118,14.6293333 C96.2795294,13.8952157 94.8398431,10.7140392 94.8398431,10.7140392 L93.5143529,11.289098 C93.8814118,12.0599216 94.252549,12.9204706 94.5421176,13.6505098 C93.8854902,13.8014118 92.1643922,14.2051765 91.3079216,14.4865882 C91.77765,13.587727 92.1732122,12.6520178 92.4906667,11.6887843 C93.1187451,9.95952941 93.2247843,9.44156863 93.4776471,9.11529412 L96.9035294,9.11529412 L96.9035294,7.70823529 L89.4563137,7.70823529 L89.4563137,9.11529412 L91.8544314,9.11529412 C91.5546254,10.3284736 91.1675254,11.5183971 90.6961569,12.6757647 C90.3871656,13.5097262 89.9629724,14.2963367 89.4359216,15.0127059 L89.7907451,16.1138824 C89.7907451,16.1138824 93.5592157,14.9719216 95.0111373,14.8332549 L95.1457255,15.1880784 Z" id="路径" fill="#0081CC"></path>
                <path d="M99.8767059,5.51811765 L99.9419608,2.4185098 L98.3595294,2.4185098 C98.3595294,2.4185098 98.3595294,3.80109804 98.3595294,5.51811765 L96.4141176,5.51811765 L96.4141176,6.93333333 L98.3758431,6.93333333 C98.3758431,8.01411765 98.355451,9.12345098 98.2942745,9.89019608 C98.262104,10.7345268 98.125106,11.5715847 97.8864314,12.3821176 C97.4335757,14.1181943 96.3427729,15.6196864 94.8316863,16.5869804 L95.9695686,17.6555294 C100.027608,15.0534902 99.7869804,9.24988235 99.7869804,9.24988235 L99.8359216,6.93333333 L102.368627,6.93333333 L102.066824,14.588549 C102.078907,14.8354293 101.98525,15.0757672 101.809306,15.2493752 C101.633363,15.4229832 101.391795,15.5134206 101.145098,15.4980392 L99.3872941,15.4980392 L99.6768627,17.0152157 L101.340863,17.0152157 C103.482039,17.0152157 103.559529,14.825098 103.559529,14.825098 L103.898039,5.52219608 L99.8767059,5.51811765 Z" id="路径" fill="#0081CC"></path>
                <g id="China-Mobile" transform="translate(40.000000, 20.000000)" fill="#0081CC">
                    <path d="M15.318727,3.01688221 L16.4971334,3.01688221 L16.4971334,8.95345849 L15.318727,8.95345849 L15.318727,3.01688221 Z M15.318727,0.639822 L16.4971334,0.639822 L16.4971334,1.96806008 L15.318727,1.96806008 L15.318727,0.639822 Z M52.8244759,3.01688221 L54.0028822,3.01688221 L54.0028822,8.95345849 L52.8244759,8.95345849 L52.8244759,3.01688221 Z M55.2744272,1.42108547e-14 L56.4528335,1.42108547e-14 L56.4528335,8.95345849 L55.2744272,8.95345849 L55.2744272,1.42108547e-14 Z M52.8244759,0.639822 L54.0028822,0.639822 L54.0028822,1.96806008 L52.8244759,1.96806008 L52.8244759,0.639822 Z M12.7067954,2.92779307 C14.2942019,3.32059519 14.1403207,5.09427896 14.1403207,5.09427896 L14.1403207,8.96560701 L12.9254688,8.96560701 L12.9254688,5.06998192 C12.9254688,4.0292588 12.3018448,3.92802114 12.3018448,3.92802114 C11.5179689,3.77331641 10.7304384,4.17713522 10.3985768,4.90395216 L10.3985768,8.95345849 L9.21612099,8.95345849 L9.21612099,2.13162821e-14 L10.3985768,2.13162821e-14 L10.3985768,3.62025866 C10.9912453,2.99725742 11.8690624,2.73391228 12.7067954,2.92779307 Z M21.1783627,2.92779307 C22.7455216,3.32059519 22.6118879,5.09427896 22.6118879,5.09427896 L22.6118879,8.95345849 L21.397036,8.95345849 L21.397036,5.0578334 C21.397036,4.01711028 20.773412,3.91587262 20.773412,3.91587262 C19.988759,3.82271981 19.2286519,4.22617367 18.8660946,4.9282492 L18.8660946,8.95345849 L17.7281833,8.95345849 L17.7281833,2.99258518 L18.6271737,2.99258518 L18.813451,3.69719928 C19.4008181,3.02615935 20.3085944,2.73082116 21.1783627,2.92779307 Z M26.8476715,3.02903073 C27.7196171,3.36567692 28.2710364,4.23055174 28.2083057,5.16312057 L28.2083057,8.94130997 L27.1918796,8.94130997 L27.0946914,8.45131971 C26.613478,8.81481712 26.042259,9.04022464 25.4424928,9.10329022 C24.6499633,9.12092968 23.922079,8.66798859 23.5878189,7.94918092 C23.1862855,7.04463392 23.536651,5.98302656 24.3977202,5.49518009 C25.3412552,4.92015019 27.0460973,5.43443749 27.0460973,5.43443749 L27.0460973,5.3736949 C27.0460973,2.90754554 23.915829,4.30462523 23.915829,4.30462523 L23.915829,3.21530802 C23.915829,3.21530802 25.4384433,2.51474343 26.8476715,3.02903073 Z M26.9934538,7.44704214 L27.0177508,6.43871506 C26.0134732,6.11070505 24.7743243,6.03376443 24.6285421,7.02994298 C24.5824414,7.27519355 24.6453355,7.52836635 24.8008459,7.72353196 C24.9563564,7.91869757 25.1890912,8.03653909 25.4384433,8.04636907 C26.0121902,8.04115617 26.5646182,7.82824122 26.9934538,7.44704214 Z M32.2651323,0.680317063 L34.8001232,6.76267557 L37.3472627,0.680317063 L38.9387187,0.680317063 L38.9387187,8.95345849 L37.7279163,8.95345849 L37.7279163,2.69292171 L35.0835887,8.95345849 L34.5004597,8.95345849 L31.8520826,2.64837714 L31.8520826,8.95345849 L30.6615277,8.95345849 L30.6615277,0.680317063 L32.2651323,0.680317063 Z M42.8059972,2.85085245 C43.6272333,2.85192456 44.414348,3.17946574 44.9939096,3.76130609 C45.5734712,4.34314644 45.8979211,5.13154034 45.8957706,5.9527743 C45.8957609,7.20848803 45.1386807,8.34032228 43.9780798,8.81972032 C42.8174789,9.29911835 41.4823392,9.03149684 40.5961594,8.14183269 C39.7099796,7.25216855 39.4475994,5.91598898 39.931548,4.75727821 C40.4154967,3.59856744 41.5502931,2.84593452 42.8059972,2.85085245 Z M40.882499,6.76676748 C41.2111391,7.53433659 41.9711357,8.02712207 42.8059972,8.01397302 C43.9313192,8.00063745 44.8352776,7.08221566 44.8307504,5.95682381 C44.8306468,5.12185876 44.3258608,4.3697794 43.5531722,4.0533636 C42.7804836,3.7369478 41.8931838,3.91896833 41.3074786,4.51404483 C40.7217734,5.10912133 40.553859,5.99919836 40.882499,6.76676748 Z M50.4474157,3.10597135 C51.9983766,3.85513002 52.0226736,5.61666528 51.9011884,6.54805173 C51.7933212,7.18488664 51.5132389,7.7800615 51.0912872,8.26909192 C50.6138871,8.80516554 49.9301502,9.11166828 49.2123162,9.11138924 C48.6588613,9.07502651 48.138303,8.83565624 47.7504444,8.43917119 L47.5925137,8.96560701 L46.6692263,8.96560701 L46.6692263,0.0323960506 L47.8840782,0.0323960506 L47.8840782,3.43398137 C48.5870598,2.80197633 49.6079453,2.67134169 50.4474157,3.10597135 Z M49.3095044,8.04636907 C50.5284058,8.04636907 50.7997227,6.64928939 50.6863365,5.62476429 C50.5729504,4.60023919 50.1599007,3.9037241 49.2771083,3.9037241 C48.7482741,3.90779094 48.2427539,4.12194502 47.8719296,4.49900153 L47.8719296,7.37415102 C48.1859675,7.8514433 48.7418778,8.11139008 49.3095044,8.04636907 Z M61.830578,3.72959533 C62.2031325,4.23578362 62.4825485,5.03758587 62.4461029,6.31318036 L58.4694877,6.31318036 C58.4694877,6.31318036 58.5140323,8.98180503 62.1950335,7.69811153 L62.1950335,8.73073564 C61.5075794,9.02740659 60.7594717,9.15648639 60.0123496,9.10733973 C59.2030261,9.08256659 58.4397489,8.72510089 57.9025568,8.11926019 C57.9025568,8.11926019 56.9711704,6.96110138 57.4976062,4.87965512 C57.6363066,4.35750384 57.9165867,3.88383045 58.3075074,3.51092199 C58.7786506,3.10843023 59.376519,2.88476724 59.9961516,2.879199 C60.7086131,2.85211383 61.3908396,3.16837776 61.830578,3.72959533 Z M58.5666759,5.28055625 L61.2029045,5.28055625 C61.2029045,5.28055625 61.1624094,3.9037241 59.9880526,3.9037241 C58.8136957,3.9037241 58.5666759,5.28055625 58.5666759,5.28055625 Z M1.17447731,5.3146504 C1.44732227,6.8280213 2.77039828,7.92497618 4.30811932,7.91273536 C5.46818358,7.90838331 6.53019177,7.2611977 7.06583313,6.23219024 L8.28068503,6.23219024 C7.54596947,8.1625046 5.53761372,9.29284576 3.50625802,8.91932939 C1.47490232,8.54581302 0,6.77498634 0,4.70957586 C0,2.64416537 1.47490232,0.873338699 3.50625802,0.49982233 C5.53761372,0.126305961 7.54596947,1.25664712 8.28068503,3.18696148 L7.02533807,3.18696148 C6.26231896,1.85184437 4.64867315,1.26024711 3.20349542,1.78579177 C1.7583177,2.31133643 0.901632354,3.8012795 1.17447731,5.3146504 Z" id="China"></path>
                    <path d="M82.060534,3.36734104 C82.4815277,3.03518594 82.983499,2.84839438 83.5108494,2.85085245 C84.2008801,2.85192456 84.8622408,3.17946574 85.3492083,3.76130609 C85.8361758,4.34314644 86.1087898,5.13154034 86.1069828,5.9527743 C86.1069747,7.20848803 85.47085,8.34032228 84.4956734,8.81972032 C83.6849833,9.21825654 82.7729405,9.10052493 82.060534,8.53832878 L82.060534,11.9321819 L80.8821277,11.9321819 L80.8821277,2.9787234 L82.060534,2.9787234 L82.060534,3.36734104 Z M82.060534,4.78933298 L82.060534,7.12484066 C82.3842751,7.68383587 82.9256751,8.02494197 83.5108494,8.01397302 C84.4563835,8.00063745 85.2159203,7.08221566 85.2121164,5.95682381 C85.2120294,5.12185876 84.7878908,4.3697794 84.1386514,4.0533636 C83.489412,3.7369478 82.7438723,3.91896833 82.2517427,4.51404483 C82.1806048,4.60006385 82.1168019,4.69224691 82.060534,4.78933298 Z M91.3139005,3.72959533 C91.6864551,4.23578362 91.9658711,5.03758587 91.9294255,6.31318036 L87.9528103,6.31318036 C87.9528103,6.31318036 87.9973549,8.98180503 91.6783561,7.69811153 L91.6783561,8.73073564 C90.990902,9.02740659 90.2427943,9.15648639 89.4956722,9.10733973 C88.6863487,9.08256659 87.9230715,8.72510089 87.3858794,8.11926019 C87.3858794,8.11926019 86.454493,6.96110138 86.9809288,4.87965512 C87.1196292,4.35750384 87.3999093,3.88383045 87.79083,3.51092199 C88.2619732,3.10843023 88.8598416,2.88476724 89.4794742,2.879199 C90.1919357,2.85211383 90.8741622,3.16837776 91.3139005,3.72959533 Z M88.0499984,5.28055625 L90.6862271,5.28055625 C90.6862271,5.28055625 90.645732,3.9037241 89.4713752,3.9037241 C88.2970183,3.9037241 88.0499984,5.28055625 88.0499984,5.28055625 Z M96.2670588,2.92779307 C97.8342178,3.32059519 97.7005841,5.09427896 97.7005841,5.09427896 L97.7005841,8.95345849 L96.4857322,8.95345849 L96.4857322,5.0578334 C96.4857322,4.01711028 95.8621082,3.91587262 95.8621082,3.91587262 C95.0774551,3.82271981 94.317348,4.22617367 93.9547907,4.9282492 L93.9547907,8.95345849 L92.8168794,8.95345849 L92.8168794,2.99258518 L93.7158698,2.99258518 L93.9021471,3.69719928 C94.4895143,3.02615935 95.3972906,2.73082116 96.2670588,2.92779307 Z M76.409078,7.5179669 C77.7086625,7.5179669 78.8565957,6.14206971 78.8565957,4.34976359 C78.8565957,2.55745748 77.7086625,1.18156028 76.409078,1.18156028 C75.1094935,1.18156028 73.9615603,2.55745748 73.9615603,4.34976359 C73.9615603,6.14206971 75.1094935,7.5179669 76.409078,7.5179669 Z M76.409078,8.69952719 C74.4047936,8.69952719 72.78,6.75207169 72.78,4.34976359 C72.78,1.9474555 74.4047936,0 76.409078,0 C78.4133625,0 80.038156,1.9474555 80.038156,4.34976359 C80.038156,6.75207169 78.4133625,8.69952719 76.409078,8.69952719 Z" id="Open"></path>
                    <path d="M64.45,0.075538868 L65.6284063,0.075538868 L65.6284063,9.02899736 L64.45,9.02899736 L64.45,0.075538868 Z M69.5252315,1.17840634 L69.5252315,9.06606592 L68.3468252,9.06606592 L68.3468252,1.17840634 L66.473617,1.17840634 L66.473617,-7.58927347e-15 L71.3984397,-7.58927347e-15 L71.3984397,1.17840634 L69.5252315,1.17840634 Z" id="IT"></path>
                    <path d="M106.07,0.112607426 L107.248406,0.112607426 L107.248406,9.06606592 L106.07,9.06606592 L106.07,0.112607426 Z M111.481405,3.14163816 C112.35335,3.47828435 112.90477,4.34315916 112.842039,5.27572799 L112.842039,9.0539174 L111.825613,9.0539174 L111.728425,8.56392713 C111.247211,8.92742455 110.675992,9.15283206 110.076226,9.21589765 C109.283697,9.23353711 108.555812,8.78059601 108.221552,8.06178835 C107.820019,7.15724135 108.170384,6.09563398 109.031453,5.60778751 C109.974988,5.03275761 111.679831,5.54704492 111.679831,5.54704492 L111.679831,5.48630232 C111.679831,3.02015297 108.549562,4.41723265 108.549562,4.41723265 L108.549562,3.32791545 C108.549562,3.32791545 110.072177,2.62735086 111.481405,3.14163816 Z M111.627187,7.55964956 L111.651484,6.55132249 C110.647206,6.22331247 109.408058,6.14637185 109.262275,7.14255041 C109.216175,7.38780097 109.279069,7.64097378 109.434579,7.83613939 C109.59009,8.031305 109.822824,8.14914651 110.072177,8.1589765 C110.645923,8.1537636 111.198351,7.94084865 111.627187,7.55964956 Z M117.097234,8.95213461 C116.763617,9.08319844 116.346596,9.14277291 116.001064,9.14277291 C114.964468,9.14277291 114.523617,8.53511334 114.523617,7.54617717 L114.523617,4.06702823 L113.665745,4.06702823 L113.665745,3.03043249 L114.547447,3.03043249 L114.547447,1.76745376 L115.89383,1.3266027 L115.89383,3.03043249 L117.03766,3.03043249 L117.03766,4.06702823 L115.89383,4.06702823 L115.89383,7.2959644 C115.89383,7.76064525 115.953404,8.08234738 116.489574,8.08234738 C116.692128,8.08234738 116.847021,8.02277291 117.025745,7.92745376 L117.097234,8.95213461 Z M120.695532,0.421070783 L120.624043,1.43383674 C120.492979,1.37426227 120.32617,1.33851759 120.171277,1.33851759 C119.682766,1.33851759 119.468298,1.64830483 119.468298,2.22021972 L119.468298,3.03043249 L120.528723,3.03043249 L120.528723,4.06702823 L119.468298,4.06702823 L119.468298,9.01170908 L118.098085,9.01170908 L118.098085,4.06702823 L117.144894,4.06702823 L117.144894,3.03043249 L118.098085,3.03043249 L118.098085,2.11298568 C118.098085,0.802347379 118.753404,0.301921847 119.754255,0.301921847 C120.230851,0.301921847 120.516808,0.385326102 120.695532,0.421070783 Z M125.842766,5.997241 C125.842766,7.58192185 125.068298,9.14277291 123.292979,9.14277291 C121.481915,9.14277291 120.731277,7.62958142 120.731277,5.997241 C120.731277,4.43638993 121.601064,2.91128355 123.292979,2.91128355 C125.115957,2.91128355 125.842766,4.36490057 125.842766,5.997241 Z M124.389149,5.997241 C124.389149,5.25851759 124.281915,3.9359644 123.292979,3.9359644 C122.351702,3.9359644 122.184894,5.29426227 122.184894,5.997241 C122.184894,6.74787929 122.327872,8.10617717 123.292979,8.10617717 C124.258085,8.10617717 124.389149,6.71213461 124.389149,5.997241 Z M129.715106,2.94702823 L129.643617,4.22192185 C129.512553,4.19809206 129.381489,4.16234738 129.250425,4.16234738 C128.309149,4.16234738 128.035106,5.19894312 128.035106,5.97341121 L128.035106,9.01170908 L126.652979,9.01170908 L126.652979,4.50787929 C126.652979,4.00745376 126.629149,3.53085802 126.617234,3.03043249 L127.880213,3.03043249 L127.904043,4.01936866 C128.201915,3.3759644 128.70234,2.91128355 129.441064,2.91128355 C129.524468,2.91128355 129.631702,2.93511334 129.715106,2.94702823 Z M137.638511,9.01170908 L136.268298,9.01170908 L136.268298,5.06787929 C136.268298,4.54362397 136.161064,3.97170908 135.505745,3.97170908 C134.91,3.97170908 134.612128,4.69851759 134.612128,5.2466027 L134.612128,9.01170908 L133.25383,9.01170908 L133.25383,5.06787929 C133.25383,4.54362397 133.146596,3.97170908 132.491277,3.97170908 C131.895532,3.97170908 131.59766,4.69851759 131.59766,5.2466027 L131.59766,9.01170908 L130.227447,9.01170908 L130.227447,4.50787929 C130.227447,4.01936866 130.203617,3.51894312 130.191702,3.03043249 L131.454681,3.03043249 L131.490425,3.91213461 C131.788298,3.30447504 132.324468,2.91128355 133.027447,2.91128355 C133.76617,2.91128355 134.242766,3.28064525 134.481064,3.91213461 C134.838511,3.28064525 135.327021,2.91128355 136.00617,2.91128355 C137.17383,2.91128355 137.638511,3.78107078 137.638511,4.94873036 L137.638511,9.01170908 Z M101.728406,0 L102.833688,0 C104.204608,-2.2046982e-16 105.315957,1.11134991 105.315957,2.4822695 C105.315957,3.8531891 104.204608,4.96453901 102.833688,4.96453901 L101.728406,4.96453901 L101.728406,8.95345849 L100.55,8.95345849 L100.55,0 L101.728406,1.42108547e-14 L101.728406,0 Z M101.73156,3.78297872 L102.833688,3.78297872 C103.55205,3.78297872 104.134397,3.20063137 104.134397,2.4822695 C104.134397,1.76390764 103.55205,1.18156028 102.833688,1.18156028 L101.73156,1.18156028 L101.73156,3.78297872 Z" id="p"></path>
                </g>
                <path d="M1.22352941,11.3951373 C1.22352941,11.3951373 4.48627451,15.7101176 8.09568627,18.5813333 C8.93756464,19.2592789 10.1553771,19.1924048 10.9179608,18.4263529 C12.3658039,17.1294118 18.3937255,11.619451 18.3937255,11.619451 C18.3937255,11.619451 20.6654118,9.36407843 23.2021961,11.619451 C23.2021961,11.619451 28.5367843,16.3626667 31.4528627,20.3432157 C31.5664389,20.4508141 31.5805156,20.6267723 31.4854902,20.7510588 C31.3427451,21.0039216 31.0776471,21.7013333 31.0776471,21.7013333 C29.0047564,19.0785354 26.687306,16.6586638 24.156549,14.4743529 C24.156549,14.4743529 22.7127843,13.3772549 21.4729412,14.5355294 C20.233098,15.6938039 14.3642353,21.0610196 13.4302745,21.7421176 C12.4963137,22.4232157 10.9546667,23.1328627 8.76454902,21.2078431 C7.05976471,19.6702745 2.58980392,15.4409412 0.815686275,12.7777255 C0.721928715,12.6614414 0.70898087,12.4995933 0.783058824,12.3698824 L1.22352941,11.3951373 Z" id="路径" fill="#9DC815"></path>
                <path d="M1.88015686,10.0900392 L3.744,12.1292549 C3.744,12.1292549 3.97647059,12.4310588 4.41286275,12.0517647 C4.8492549,11.6724706 10.6039216,6.11764706 12.7940392,4.53929412 C13.985156,3.63281889 15.4096109,3.08397231 16.9010196,2.95686275 C18.1411968,2.85477881 19.3870469,3.06803243 20.5226667,3.57678431 C21.9256471,4.20894118 24.0627451,5.93819608 26.0734118,8.01819608 C27.5053457,9.49388308 28.8468717,11.0546838 30.0906667,12.6920784 C30.9063529,13.756549 31.6608627,14.8291765 32.2481569,15.7672157 C32.2355769,14.9370016 32.0406503,14.1197021 31.6771765,13.3731765 C29.8339954,10.1234637 27.4947106,7.18146911 24.7438431,4.6534902 C24.3033725,4.24156863 20.3921569,0.32627451 16.5992157,0.407843137 C14.129702,0.415091565 11.7394181,1.28009177 9.83717647,2.85490196 C9.30290196,3.29945098 3.64611765,8.1772549 1.88015686,10.0900392 Z" id="路径" fill="#0081CC"></path>
                <path d="M5.89741176,14.4213333 L8.01819608,16.460549 C8.35288277,16.6844019 8.80230597,16.6212017 9.06227451,16.3137255 C9.06227451,16.3137255 11.1014902,14.323451 12.838902,12.7287843 C14.4702745,11.2238431 16.1383529,9.67811765 16.7541961,9.23764706 C16.7541961,9.23764706 19.4214902,6.47247059 22.8147451,9.16423529 C26.2625231,12.0550878 29.3417344,15.3589391 31.9830588,19.0014118 L32.1339608,18.2672941 C32.2255673,17.8612431 32.1395078,17.4353972 31.8974118,17.0967843 C31.8974118,17.0967843 28.3369412,11.827451 23.9526275,8.06713725 C23.9526275,8.06713725 21.7665882,5.7587451 18.9728627,5.17960784 C17.3789324,4.91192872 15.7465633,5.33782865 14.4865882,6.35011765 C13.4139608,7.19435294 11.081098,9.36815686 9.13568627,11.2197647 C7.34117647,12.9408627 5.89741176,14.4213333 5.89741176,14.4213333 Z" id="路径" fill="#0081CC"></path>
                <path d="M30.368,22.9778824 L28.5041569,20.9386667 C28.5041569,20.9386667 28.2676078,20.6368627 27.8312157,21.0161569 C27.3948235,21.395451 21.6442353,26.9625098 19.4541176,28.5490196 C18.2630008,29.4554948 16.8385459,30.0043414 15.3471373,30.131451 C14.10696,30.2335349 12.8611099,30.0202813 11.7254902,29.5115294 C10.3225098,28.8793725 8.18133333,27.1501176 6.1747451,25.0701176 C4.74268291,23.5931145 3.40115452,22.0309489 2.1574902,20.3921569 C1.34180392,19.3276863 0.587294118,18.2550588 7.10542736e-15,17.3170196 C0.0129059062,18.1432766 0.207861883,18.9565216 0.570980392,19.6988235 C2.41512213,22.9466795 4.75431945,25.8871881 7.50431373,28.4144314 C7.94886275,28.8222745 11.856,32.7416471 15.6611765,32.656 C18.1309902,32.6504494 20.52183,31.785248 22.4232157,30.2089412 C22.9452549,29.772549 28.6020392,24.8784314 30.368,22.9778824 Z" id="路径" fill="#0081CC"></path>
                <path d="M26.3507451,18.6465882 L24.2299608,16.6073725 C23.8932907,16.3854257 23.4435661,16.4521817 23.1858824,16.7623529 C23.1858824,16.7623529 21.1466667,18.7526275 19.4092549,20.3472941 C17.7778824,21.8563137 16.1098039,23.3979608 15.4898824,23.8384314 C15.4898824,23.8384314 12.8266667,26.6036078 9.43341176,23.9118431 C5.98575145,21.0193362 2.90657475,17.7141523 0.265098039,14.0705882 L0.114196078,14.8006275 C0.0225895795,15.2066785 0.108649023,15.6325244 0.350745098,15.9711373 C0.350745098,15.9711373 3.91121569,21.2078431 8.29552941,25.0007843 C8.29552941,25.0007843 10.4815686,27.3091765 13.2752941,27.8883137 C14.8692245,28.1559928 16.5015936,27.7300929 17.7615686,26.7178039 C18.8341961,25.8735686 21.1670588,23.6997647 23.1124706,21.8481569 C24.9273725,20.1311373 26.3507451,18.6465882 26.3507451,18.6465882 Z" id="路径" fill="#0081CC"></path>
                <circle id="椭圆形" fill="#90C31F" cx="116" cy="10" r="2"></circle>
            </g>
        </g>
    </g>
</svg>